<svg width="83" height="21" viewBox="0 0 83 21" fill="none" xmlns="http://www.w3.org/2000/svg">
<path d="M3.84 20.04H0V0.12H3.84C6.21 0.12 7.38 1.32 7.38 3.72V16.26C7.38 18.9 6.15 20.04 3.84 20.04ZM3 17.31H3.63C4.08 17.31 4.32 16.74 4.32 15.6V4.41C4.32 3.36 4.02 2.85 3.42 2.85H3V17.31Z" fill="white"/>
<path d="M14.1403 20.04H8.32031V0.12H13.9603V2.85H11.3203V8.22H13.6303V10.98H11.3203V17.31H14.1403V20.04Z" fill="white"/>
<path d="M19.3549 20.04H14.7949V0.12H19.0249C21.1849 0.12 21.9949 1.29 21.9949 3.27V7.05C21.9949 8.37 21.4849 9.24 20.4349 9.42V9.54C21.4249 9.72 22.2049 10.23 22.2049 12.09V17.37C22.2049 19.14 21.4249 20.04 19.3549 20.04ZM19.1749 16.35V11.88C19.1749 11.19 18.8749 10.86 18.3049 10.86H17.7949V17.43H18.3049C18.8749 17.43 19.1749 17.07 19.1749 16.35ZM19.1449 7.38V3.81C19.1449 3.06 18.9949 2.73 18.3949 2.73H17.7949V8.37H18.3949C18.9049 8.37 19.1449 8.04 19.1449 7.38Z" fill="white"/>
<path d="M27.318 16.5V0.12H30.348V16.26C30.348 18.78 29.088 20.19 26.688 20.19C24.348 20.19 22.998 18.9 22.998 16.29V0.12H25.968V16.5C25.968 17.1 26.208 17.4 26.658 17.4C27.108 17.4 27.318 17.1 27.318 16.5Z" fill="white"/>
<path d="M36.2691 20.04H33.2391V2.85H31.1091V0.12H38.4291V2.85H36.2691V20.04Z" fill="white"/>
<path d="M46.3441 6H43.4941V3.69C43.4941 3.12 43.2241 2.82 42.7441 2.82C42.2341 2.82 41.9941 3.15 41.9941 3.6V5.34C41.9941 6.45 42.0841 6.75 42.6241 7.35C43.6741 8.55 45.0241 9.48 45.7741 10.47C46.3441 11.25 46.6141 12.03 46.6141 13.65V16.32C46.6141 18.84 45.4441 20.19 42.7441 20.19C40.0741 20.19 38.9041 18.87 38.9041 16.29V14.07H41.7841V16.53C41.7841 17.07 42.0841 17.4 42.6241 17.4C43.1641 17.4 43.4041 17.07 43.4041 16.53V14.34C43.4041 12.87 43.1941 12.51 42.5941 11.85C41.6341 10.8 40.4941 9.9 39.8041 8.7C39.2641 7.77 38.9941 6.84 38.9941 5.19V3.51C38.9941 1.26 40.2841 0 42.6841 0C45.3841 0 46.3441 1.59 46.3441 4.05V6Z" fill="white"/>
<path d="M52.1773 20.04H49.1473V2.85H47.0173V0.12H54.3373V2.85H52.1773V20.04Z" fill="white"/>
<path d="M59.3688 16.5V0.12H62.3988V16.26C62.3988 18.78 61.1388 20.19 58.7388 20.19C56.3988 20.19 55.0488 18.9 55.0488 16.29V0.12H58.0188V16.5C58.0188 17.1 58.2588 17.4 58.7088 17.4C59.1588 17.4 59.3688 17.1 59.3688 16.5Z" fill="white"/>
<path d="M67.1798 20.04H63.3398V0.12H67.1798C69.5498 0.12 70.7198 1.32 70.7198 3.72V16.26C70.7198 18.9 69.4898 20.04 67.1798 20.04ZM66.3398 17.31H66.9698C67.4198 17.31 67.6598 16.74 67.6598 15.6V4.41C67.6598 3.36 67.3598 2.85 66.7598 2.85H66.3398V17.31Z" fill="white"/>
<path d="M74.7202 20.04H71.6602V0.12H74.7202V20.04Z" fill="white"/>
<path d="M82.9345 4.05V16.29C82.9345 18.9 81.6145 20.19 79.2745 20.19C76.8745 20.19 75.5545 18.78 75.5545 16.26V3.99C75.5545 1.47 76.9045 0 79.2445 0C81.5845 0 82.9345 1.5 82.9345 4.05ZM79.9345 16.5V3.72C79.9345 3.12 79.6945 2.82 79.2445 2.82C78.7945 2.82 78.5845 3.12 78.5845 3.72V16.5C78.5845 17.1 78.7945 17.4 79.2445 17.4C79.6945 17.4 79.9345 17.1 79.9345 16.5Z" fill="white"/>
</svg>
